<mxfile host="app.diagrams.net" modified="2023-12-04T16:11:02.464Z" agent="Mozilla/5.0 (Windows NT 10.0; Win64; x64) AppleWebKit/537.36 (KHTML, like Gecko) Chrome/119.0.0.0 Safari/537.36" etag="D1dgzig4cZGoyBjBpAkM" version="22.1.5" type="device">
  <diagram name="Страница — 1" id="kN9gFQeaOE8jl3zAbOic">
    <mxGraphModel dx="788" dy="803" grid="1" gridSize="10" guides="1" tooltips="1" connect="1" arrows="1" fold="1" page="1" pageScale="1" pageWidth="827" pageHeight="1169" math="0" shadow="0">
      <root>
        <mxCell id="0" />
        <mxCell id="1" parent="0" />
        <mxCell id="mWVu_xRzKWNHAGZDIE05-1" value="CHasMaxQuartersState" style="swimlane;fontStyle=1;align=center;verticalAlign=top;childLayout=stackLayout;horizontal=1;startSize=26;horizontalStack=0;resizeParent=1;resizeParentMax=0;resizeLast=0;collapsible=1;marginBottom=0;whiteSpace=wrap;html=1;" vertex="1" parent="1">
          <mxGeometry x="1090" y="580" width="250" height="190" as="geometry" />
        </mxCell>
        <mxCell id="mWVu_xRzKWNHAGZDIE05-2" value="- m_gumballMachine: IMultiGumballMachine" style="text;strokeColor=none;fillColor=none;align=left;verticalAlign=top;spacingLeft=4;spacingRight=4;overflow=hidden;rotatable=0;points=[[0,0.5],[1,0.5]];portConstraint=eastwest;whiteSpace=wrap;html=1;" vertex="1" parent="mWVu_xRzKWNHAGZDIE05-1">
          <mxGeometry y="26" width="250" height="26" as="geometry" />
        </mxCell>
        <mxCell id="mWVu_xRzKWNHAGZDIE05-3" value="" style="line;strokeWidth=1;fillColor=none;align=left;verticalAlign=middle;spacingTop=-1;spacingLeft=3;spacingRight=3;rotatable=0;labelPosition=right;points=[];portConstraint=eastwest;strokeColor=inherit;" vertex="1" parent="mWVu_xRzKWNHAGZDIE05-1">
          <mxGeometry y="52" width="250" height="8" as="geometry" />
        </mxCell>
        <mxCell id="mWVu_xRzKWNHAGZDIE05-6" value="+ InsertQuarter()" style="text;strokeColor=none;fillColor=none;align=left;verticalAlign=top;spacingLeft=4;spacingRight=4;overflow=hidden;rotatable=0;points=[[0,0.5],[1,0.5]];portConstraint=eastwest;whiteSpace=wrap;html=1;" vertex="1" parent="mWVu_xRzKWNHAGZDIE05-1">
          <mxGeometry y="60" width="250" height="26" as="geometry" />
        </mxCell>
        <mxCell id="mWVu_xRzKWNHAGZDIE05-7" value="+ EjectQuarter()" style="text;strokeColor=none;fillColor=none;align=left;verticalAlign=top;spacingLeft=4;spacingRight=4;overflow=hidden;rotatable=0;points=[[0,0.5],[1,0.5]];portConstraint=eastwest;whiteSpace=wrap;html=1;" vertex="1" parent="mWVu_xRzKWNHAGZDIE05-1">
          <mxGeometry y="86" width="250" height="26" as="geometry" />
        </mxCell>
        <mxCell id="mWVu_xRzKWNHAGZDIE05-8" value="+ TurnCrank()" style="text;strokeColor=none;fillColor=none;align=left;verticalAlign=top;spacingLeft=4;spacingRight=4;overflow=hidden;rotatable=0;points=[[0,0.5],[1,0.5]];portConstraint=eastwest;whiteSpace=wrap;html=1;" vertex="1" parent="mWVu_xRzKWNHAGZDIE05-1">
          <mxGeometry y="112" width="250" height="26" as="geometry" />
        </mxCell>
        <mxCell id="mWVu_xRzKWNHAGZDIE05-5" value="+ Dispense()" style="text;strokeColor=none;fillColor=none;align=left;verticalAlign=top;spacingLeft=4;spacingRight=4;overflow=hidden;rotatable=0;points=[[0,0.5],[1,0.5]];portConstraint=eastwest;whiteSpace=wrap;html=1;" vertex="1" parent="mWVu_xRzKWNHAGZDIE05-1">
          <mxGeometry y="138" width="250" height="26" as="geometry" />
        </mxCell>
        <mxCell id="mWVu_xRzKWNHAGZDIE05-4" value="+ ToString(): string" style="text;strokeColor=none;fillColor=none;align=left;verticalAlign=top;spacingLeft=4;spacingRight=4;overflow=hidden;rotatable=0;points=[[0,0.5],[1,0.5]];portConstraint=eastwest;whiteSpace=wrap;html=1;" vertex="1" parent="mWVu_xRzKWNHAGZDIE05-1">
          <mxGeometry y="164" width="250" height="26" as="geometry" />
        </mxCell>
        <mxCell id="mWVu_xRzKWNHAGZDIE05-16" value="CHasQuarterState" style="swimlane;fontStyle=1;align=center;verticalAlign=top;childLayout=stackLayout;horizontal=1;startSize=26;horizontalStack=0;resizeParent=1;resizeParentMax=0;resizeLast=0;collapsible=1;marginBottom=0;whiteSpace=wrap;html=1;" vertex="1" parent="1">
          <mxGeometry x="1450" y="570" width="250" height="190" as="geometry" />
        </mxCell>
        <mxCell id="mWVu_xRzKWNHAGZDIE05-17" value="- m_gumballMachine: IMultiGumballMachine" style="text;strokeColor=none;fillColor=none;align=left;verticalAlign=top;spacingLeft=4;spacingRight=4;overflow=hidden;rotatable=0;points=[[0,0.5],[1,0.5]];portConstraint=eastwest;whiteSpace=wrap;html=1;" vertex="1" parent="mWVu_xRzKWNHAGZDIE05-16">
          <mxGeometry y="26" width="250" height="26" as="geometry" />
        </mxCell>
        <mxCell id="mWVu_xRzKWNHAGZDIE05-18" value="" style="line;strokeWidth=1;fillColor=none;align=left;verticalAlign=middle;spacingTop=-1;spacingLeft=3;spacingRight=3;rotatable=0;labelPosition=right;points=[];portConstraint=eastwest;strokeColor=inherit;" vertex="1" parent="mWVu_xRzKWNHAGZDIE05-16">
          <mxGeometry y="52" width="250" height="8" as="geometry" />
        </mxCell>
        <mxCell id="mWVu_xRzKWNHAGZDIE05-19" value="+ InsertQuarter()" style="text;strokeColor=none;fillColor=none;align=left;verticalAlign=top;spacingLeft=4;spacingRight=4;overflow=hidden;rotatable=0;points=[[0,0.5],[1,0.5]];portConstraint=eastwest;whiteSpace=wrap;html=1;" vertex="1" parent="mWVu_xRzKWNHAGZDIE05-16">
          <mxGeometry y="60" width="250" height="26" as="geometry" />
        </mxCell>
        <mxCell id="mWVu_xRzKWNHAGZDIE05-20" value="+ EjectQuarter()" style="text;strokeColor=none;fillColor=none;align=left;verticalAlign=top;spacingLeft=4;spacingRight=4;overflow=hidden;rotatable=0;points=[[0,0.5],[1,0.5]];portConstraint=eastwest;whiteSpace=wrap;html=1;" vertex="1" parent="mWVu_xRzKWNHAGZDIE05-16">
          <mxGeometry y="86" width="250" height="26" as="geometry" />
        </mxCell>
        <mxCell id="mWVu_xRzKWNHAGZDIE05-21" value="+ TurnCrank()" style="text;strokeColor=none;fillColor=none;align=left;verticalAlign=top;spacingLeft=4;spacingRight=4;overflow=hidden;rotatable=0;points=[[0,0.5],[1,0.5]];portConstraint=eastwest;whiteSpace=wrap;html=1;" vertex="1" parent="mWVu_xRzKWNHAGZDIE05-16">
          <mxGeometry y="112" width="250" height="26" as="geometry" />
        </mxCell>
        <mxCell id="mWVu_xRzKWNHAGZDIE05-22" value="+ Dispense()" style="text;strokeColor=none;fillColor=none;align=left;verticalAlign=top;spacingLeft=4;spacingRight=4;overflow=hidden;rotatable=0;points=[[0,0.5],[1,0.5]];portConstraint=eastwest;whiteSpace=wrap;html=1;" vertex="1" parent="mWVu_xRzKWNHAGZDIE05-16">
          <mxGeometry y="138" width="250" height="26" as="geometry" />
        </mxCell>
        <mxCell id="mWVu_xRzKWNHAGZDIE05-23" value="+ ToString(): string" style="text;strokeColor=none;fillColor=none;align=left;verticalAlign=top;spacingLeft=4;spacingRight=4;overflow=hidden;rotatable=0;points=[[0,0.5],[1,0.5]];portConstraint=eastwest;whiteSpace=wrap;html=1;" vertex="1" parent="mWVu_xRzKWNHAGZDIE05-16">
          <mxGeometry y="164" width="250" height="26" as="geometry" />
        </mxCell>
        <mxCell id="mWVu_xRzKWNHAGZDIE05-24" value="CMultiGumballMachine" style="swimlane;fontStyle=1;align=center;verticalAlign=top;childLayout=stackLayout;horizontal=1;startSize=26;horizontalStack=0;resizeParent=1;resizeParentMax=0;resizeLast=0;collapsible=1;marginBottom=0;whiteSpace=wrap;html=1;" vertex="1" parent="1">
          <mxGeometry x="1150" y="990" width="340" height="580" as="geometry" />
        </mxCell>
        <mxCell id="mWVu_xRzKWNHAGZDIE05-25" value="- m_count: unsigned" style="text;strokeColor=none;fillColor=none;align=left;verticalAlign=top;spacingLeft=4;spacingRight=4;overflow=hidden;rotatable=0;points=[[0,0.5],[1,0.5]];portConstraint=eastwest;whiteSpace=wrap;html=1;" vertex="1" parent="mWVu_xRzKWNHAGZDIE05-24">
          <mxGeometry y="26" width="340" height="26" as="geometry" />
        </mxCell>
        <mxCell id="mWVu_xRzKWNHAGZDIE05-29" value="- m_quartersCount: unsigned" style="text;strokeColor=none;fillColor=none;align=left;verticalAlign=top;spacingLeft=4;spacingRight=4;overflow=hidden;rotatable=0;points=[[0,0.5],[1,0.5]];portConstraint=eastwest;whiteSpace=wrap;html=1;" vertex="1" parent="mWVu_xRzKWNHAGZDIE05-24">
          <mxGeometry y="52" width="340" height="26" as="geometry" />
        </mxCell>
        <mxCell id="mWVu_xRzKWNHAGZDIE05-31" value="- m_soldState: CSoldState" style="text;strokeColor=none;fillColor=none;align=left;verticalAlign=top;spacingLeft=4;spacingRight=4;overflow=hidden;rotatable=0;points=[[0,0.5],[1,0.5]];portConstraint=eastwest;whiteSpace=wrap;html=1;" vertex="1" parent="mWVu_xRzKWNHAGZDIE05-24">
          <mxGeometry y="78" width="340" height="26" as="geometry" />
        </mxCell>
        <mxCell id="mWVu_xRzKWNHAGZDIE05-34" value="- m_soldOutState: CSoldOutState" style="text;strokeColor=none;fillColor=none;align=left;verticalAlign=top;spacingLeft=4;spacingRight=4;overflow=hidden;rotatable=0;points=[[0,0.5],[1,0.5]];portConstraint=eastwest;whiteSpace=wrap;html=1;" vertex="1" parent="mWVu_xRzKWNHAGZDIE05-24">
          <mxGeometry y="104" width="340" height="26" as="geometry" />
        </mxCell>
        <mxCell id="mWVu_xRzKWNHAGZDIE05-33" value="- m_noQuarterState: CNoQuarterState" style="text;strokeColor=none;fillColor=none;align=left;verticalAlign=top;spacingLeft=4;spacingRight=4;overflow=hidden;rotatable=0;points=[[0,0.5],[1,0.5]];portConstraint=eastwest;whiteSpace=wrap;html=1;" vertex="1" parent="mWVu_xRzKWNHAGZDIE05-24">
          <mxGeometry y="130" width="340" height="26" as="geometry" />
        </mxCell>
        <mxCell id="mWVu_xRzKWNHAGZDIE05-30" value="- m_hasQuarterState: CHasQuarterState" style="text;strokeColor=none;fillColor=none;align=left;verticalAlign=top;spacingLeft=4;spacingRight=4;overflow=hidden;rotatable=0;points=[[0,0.5],[1,0.5]];portConstraint=eastwest;whiteSpace=wrap;html=1;" vertex="1" parent="mWVu_xRzKWNHAGZDIE05-24">
          <mxGeometry y="156" width="340" height="26" as="geometry" />
        </mxCell>
        <mxCell id="mWVu_xRzKWNHAGZDIE05-32" value="- m_hasMaxQuartersState: CHasMaxQuartersState" style="text;strokeColor=none;fillColor=none;align=left;verticalAlign=top;spacingLeft=4;spacingRight=4;overflow=hidden;rotatable=0;points=[[0,0.5],[1,0.5]];portConstraint=eastwest;whiteSpace=wrap;html=1;" vertex="1" parent="mWVu_xRzKWNHAGZDIE05-24">
          <mxGeometry y="182" width="340" height="26" as="geometry" />
        </mxCell>
        <mxCell id="mWVu_xRzKWNHAGZDIE05-28" value="- m_state: IState" style="text;strokeColor=none;fillColor=none;align=left;verticalAlign=top;spacingLeft=4;spacingRight=4;overflow=hidden;rotatable=0;points=[[0,0.5],[1,0.5]];portConstraint=eastwest;whiteSpace=wrap;html=1;" vertex="1" parent="mWVu_xRzKWNHAGZDIE05-24">
          <mxGeometry y="208" width="340" height="26" as="geometry" />
        </mxCell>
        <mxCell id="mWVu_xRzKWNHAGZDIE05-26" value="" style="line;strokeWidth=1;fillColor=none;align=left;verticalAlign=middle;spacingTop=-1;spacingLeft=3;spacingRight=3;rotatable=0;labelPosition=right;points=[];portConstraint=eastwest;strokeColor=inherit;" vertex="1" parent="mWVu_xRzKWNHAGZDIE05-24">
          <mxGeometry y="234" width="340" height="8" as="geometry" />
        </mxCell>
        <mxCell id="mWVu_xRzKWNHAGZDIE05-27" value="+ InsertQuarter()" style="text;strokeColor=none;fillColor=none;align=left;verticalAlign=top;spacingLeft=4;spacingRight=4;overflow=hidden;rotatable=0;points=[[0,0.5],[1,0.5]];portConstraint=eastwest;whiteSpace=wrap;html=1;" vertex="1" parent="mWVu_xRzKWNHAGZDIE05-24">
          <mxGeometry y="242" width="340" height="26" as="geometry" />
        </mxCell>
        <mxCell id="mWVu_xRzKWNHAGZDIE05-35" value="+ EjectQuarter()" style="text;strokeColor=none;fillColor=none;align=left;verticalAlign=top;spacingLeft=4;spacingRight=4;overflow=hidden;rotatable=0;points=[[0,0.5],[1,0.5]];portConstraint=eastwest;whiteSpace=wrap;html=1;" vertex="1" parent="mWVu_xRzKWNHAGZDIE05-24">
          <mxGeometry y="268" width="340" height="26" as="geometry" />
        </mxCell>
        <mxCell id="mWVu_xRzKWNHAGZDIE05-37" value="+ TurnCrank()" style="text;strokeColor=none;fillColor=none;align=left;verticalAlign=top;spacingLeft=4;spacingRight=4;overflow=hidden;rotatable=0;points=[[0,0.5],[1,0.5]];portConstraint=eastwest;whiteSpace=wrap;html=1;" vertex="1" parent="mWVu_xRzKWNHAGZDIE05-24">
          <mxGeometry y="294" width="340" height="26" as="geometry" />
        </mxCell>
        <mxCell id="mWVu_xRzKWNHAGZDIE05-36" value="+ ToString(): string" style="text;strokeColor=none;fillColor=none;align=left;verticalAlign=top;spacingLeft=4;spacingRight=4;overflow=hidden;rotatable=0;points=[[0,0.5],[1,0.5]];portConstraint=eastwest;whiteSpace=wrap;html=1;" vertex="1" parent="mWVu_xRzKWNHAGZDIE05-24">
          <mxGeometry y="320" width="340" height="26" as="geometry" />
        </mxCell>
        <mxCell id="mWVu_xRzKWNHAGZDIE05-38" value="- GetBallCount(): unsigned" style="text;strokeColor=none;fillColor=none;align=left;verticalAlign=top;spacingLeft=4;spacingRight=4;overflow=hidden;rotatable=0;points=[[0,0.5],[1,0.5]];portConstraint=eastwest;whiteSpace=wrap;html=1;" vertex="1" parent="mWVu_xRzKWNHAGZDIE05-24">
          <mxGeometry y="346" width="340" height="26" as="geometry" />
        </mxCell>
        <mxCell id="mWVu_xRzKWNHAGZDIE05-40" value="- GetQuarterCount(): unsigned" style="text;strokeColor=none;fillColor=none;align=left;verticalAlign=top;spacingLeft=4;spacingRight=4;overflow=hidden;rotatable=0;points=[[0,0.5],[1,0.5]];portConstraint=eastwest;whiteSpace=wrap;html=1;" vertex="1" parent="mWVu_xRzKWNHAGZDIE05-24">
          <mxGeometry y="372" width="340" height="26" as="geometry" />
        </mxCell>
        <mxCell id="mWVu_xRzKWNHAGZDIE05-45" value="- SetQuarterCount(unsigned count)" style="text;strokeColor=none;fillColor=none;align=left;verticalAlign=top;spacingLeft=4;spacingRight=4;overflow=hidden;rotatable=0;points=[[0,0.5],[1,0.5]];portConstraint=eastwest;whiteSpace=wrap;html=1;" vertex="1" parent="mWVu_xRzKWNHAGZDIE05-24">
          <mxGeometry y="398" width="340" height="26" as="geometry" />
        </mxCell>
        <mxCell id="mWVu_xRzKWNHAGZDIE05-44" value="- ReleaseBall()" style="text;strokeColor=none;fillColor=none;align=left;verticalAlign=top;spacingLeft=4;spacingRight=4;overflow=hidden;rotatable=0;points=[[0,0.5],[1,0.5]];portConstraint=eastwest;whiteSpace=wrap;html=1;" vertex="1" parent="mWVu_xRzKWNHAGZDIE05-24">
          <mxGeometry y="424" width="340" height="26" as="geometry" />
        </mxCell>
        <mxCell id="mWVu_xRzKWNHAGZDIE05-43" value="- SetSoldOutState()" style="text;strokeColor=none;fillColor=none;align=left;verticalAlign=top;spacingLeft=4;spacingRight=4;overflow=hidden;rotatable=0;points=[[0,0.5],[1,0.5]];portConstraint=eastwest;whiteSpace=wrap;html=1;" vertex="1" parent="mWVu_xRzKWNHAGZDIE05-24">
          <mxGeometry y="450" width="340" height="26" as="geometry" />
        </mxCell>
        <mxCell id="mWVu_xRzKWNHAGZDIE05-46" value="- SetNoQuarterState()" style="text;strokeColor=none;fillColor=none;align=left;verticalAlign=top;spacingLeft=4;spacingRight=4;overflow=hidden;rotatable=0;points=[[0,0.5],[1,0.5]];portConstraint=eastwest;whiteSpace=wrap;html=1;" vertex="1" parent="mWVu_xRzKWNHAGZDIE05-24">
          <mxGeometry y="476" width="340" height="26" as="geometry" />
        </mxCell>
        <mxCell id="mWVu_xRzKWNHAGZDIE05-42" value="- SetSoldState()" style="text;strokeColor=none;fillColor=none;align=left;verticalAlign=top;spacingLeft=4;spacingRight=4;overflow=hidden;rotatable=0;points=[[0,0.5],[1,0.5]];portConstraint=eastwest;whiteSpace=wrap;html=1;" vertex="1" parent="mWVu_xRzKWNHAGZDIE05-24">
          <mxGeometry y="502" width="340" height="26" as="geometry" />
        </mxCell>
        <mxCell id="mWVu_xRzKWNHAGZDIE05-41" value="- SetHasQuarterState()" style="text;strokeColor=none;fillColor=none;align=left;verticalAlign=top;spacingLeft=4;spacingRight=4;overflow=hidden;rotatable=0;points=[[0,0.5],[1,0.5]];portConstraint=eastwest;whiteSpace=wrap;html=1;" vertex="1" parent="mWVu_xRzKWNHAGZDIE05-24">
          <mxGeometry y="528" width="340" height="26" as="geometry" />
        </mxCell>
        <mxCell id="mWVu_xRzKWNHAGZDIE05-39" value="- SetHasMaxQuartersState()" style="text;strokeColor=none;fillColor=none;align=left;verticalAlign=top;spacingLeft=4;spacingRight=4;overflow=hidden;rotatable=0;points=[[0,0.5],[1,0.5]];portConstraint=eastwest;whiteSpace=wrap;html=1;" vertex="1" parent="mWVu_xRzKWNHAGZDIE05-24">
          <mxGeometry y="554" width="340" height="26" as="geometry" />
        </mxCell>
        <mxCell id="mWVu_xRzKWNHAGZDIE05-47" value="CNoQuarterState" style="swimlane;fontStyle=1;align=center;verticalAlign=top;childLayout=stackLayout;horizontal=1;startSize=26;horizontalStack=0;resizeParent=1;resizeParentMax=0;resizeLast=0;collapsible=1;marginBottom=0;whiteSpace=wrap;html=1;" vertex="1" parent="1">
          <mxGeometry x="1780" y="570" width="250" height="190" as="geometry" />
        </mxCell>
        <mxCell id="mWVu_xRzKWNHAGZDIE05-48" value="- m_gumballMachine: IMultiGumballMachine" style="text;strokeColor=none;fillColor=none;align=left;verticalAlign=top;spacingLeft=4;spacingRight=4;overflow=hidden;rotatable=0;points=[[0,0.5],[1,0.5]];portConstraint=eastwest;whiteSpace=wrap;html=1;" vertex="1" parent="mWVu_xRzKWNHAGZDIE05-47">
          <mxGeometry y="26" width="250" height="26" as="geometry" />
        </mxCell>
        <mxCell id="mWVu_xRzKWNHAGZDIE05-49" value="" style="line;strokeWidth=1;fillColor=none;align=left;verticalAlign=middle;spacingTop=-1;spacingLeft=3;spacingRight=3;rotatable=0;labelPosition=right;points=[];portConstraint=eastwest;strokeColor=inherit;" vertex="1" parent="mWVu_xRzKWNHAGZDIE05-47">
          <mxGeometry y="52" width="250" height="8" as="geometry" />
        </mxCell>
        <mxCell id="mWVu_xRzKWNHAGZDIE05-50" value="+ InsertQuarter()" style="text;strokeColor=none;fillColor=none;align=left;verticalAlign=top;spacingLeft=4;spacingRight=4;overflow=hidden;rotatable=0;points=[[0,0.5],[1,0.5]];portConstraint=eastwest;whiteSpace=wrap;html=1;" vertex="1" parent="mWVu_xRzKWNHAGZDIE05-47">
          <mxGeometry y="60" width="250" height="26" as="geometry" />
        </mxCell>
        <mxCell id="mWVu_xRzKWNHAGZDIE05-51" value="+ EjectQuarter()" style="text;strokeColor=none;fillColor=none;align=left;verticalAlign=top;spacingLeft=4;spacingRight=4;overflow=hidden;rotatable=0;points=[[0,0.5],[1,0.5]];portConstraint=eastwest;whiteSpace=wrap;html=1;" vertex="1" parent="mWVu_xRzKWNHAGZDIE05-47">
          <mxGeometry y="86" width="250" height="26" as="geometry" />
        </mxCell>
        <mxCell id="mWVu_xRzKWNHAGZDIE05-52" value="+ TurnCrank()" style="text;strokeColor=none;fillColor=none;align=left;verticalAlign=top;spacingLeft=4;spacingRight=4;overflow=hidden;rotatable=0;points=[[0,0.5],[1,0.5]];portConstraint=eastwest;whiteSpace=wrap;html=1;" vertex="1" parent="mWVu_xRzKWNHAGZDIE05-47">
          <mxGeometry y="112" width="250" height="26" as="geometry" />
        </mxCell>
        <mxCell id="mWVu_xRzKWNHAGZDIE05-53" value="+ Dispense()" style="text;strokeColor=none;fillColor=none;align=left;verticalAlign=top;spacingLeft=4;spacingRight=4;overflow=hidden;rotatable=0;points=[[0,0.5],[1,0.5]];portConstraint=eastwest;whiteSpace=wrap;html=1;" vertex="1" parent="mWVu_xRzKWNHAGZDIE05-47">
          <mxGeometry y="138" width="250" height="26" as="geometry" />
        </mxCell>
        <mxCell id="mWVu_xRzKWNHAGZDIE05-54" value="+ ToString(): string" style="text;strokeColor=none;fillColor=none;align=left;verticalAlign=top;spacingLeft=4;spacingRight=4;overflow=hidden;rotatable=0;points=[[0,0.5],[1,0.5]];portConstraint=eastwest;whiteSpace=wrap;html=1;" vertex="1" parent="mWVu_xRzKWNHAGZDIE05-47">
          <mxGeometry y="164" width="250" height="26" as="geometry" />
        </mxCell>
        <mxCell id="mWVu_xRzKWNHAGZDIE05-55" value="CSoldOutState" style="swimlane;fontStyle=1;align=center;verticalAlign=top;childLayout=stackLayout;horizontal=1;startSize=26;horizontalStack=0;resizeParent=1;resizeParentMax=0;resizeLast=0;collapsible=1;marginBottom=0;whiteSpace=wrap;html=1;" vertex="1" parent="1">
          <mxGeometry x="2120" y="580" width="250" height="190" as="geometry" />
        </mxCell>
        <mxCell id="mWVu_xRzKWNHAGZDIE05-56" value="- m_gumballMachine: IMultiGumballMachine" style="text;strokeColor=none;fillColor=none;align=left;verticalAlign=top;spacingLeft=4;spacingRight=4;overflow=hidden;rotatable=0;points=[[0,0.5],[1,0.5]];portConstraint=eastwest;whiteSpace=wrap;html=1;" vertex="1" parent="mWVu_xRzKWNHAGZDIE05-55">
          <mxGeometry y="26" width="250" height="26" as="geometry" />
        </mxCell>
        <mxCell id="mWVu_xRzKWNHAGZDIE05-57" value="" style="line;strokeWidth=1;fillColor=none;align=left;verticalAlign=middle;spacingTop=-1;spacingLeft=3;spacingRight=3;rotatable=0;labelPosition=right;points=[];portConstraint=eastwest;strokeColor=inherit;" vertex="1" parent="mWVu_xRzKWNHAGZDIE05-55">
          <mxGeometry y="52" width="250" height="8" as="geometry" />
        </mxCell>
        <mxCell id="mWVu_xRzKWNHAGZDIE05-58" value="+ InsertQuarter()" style="text;strokeColor=none;fillColor=none;align=left;verticalAlign=top;spacingLeft=4;spacingRight=4;overflow=hidden;rotatable=0;points=[[0,0.5],[1,0.5]];portConstraint=eastwest;whiteSpace=wrap;html=1;" vertex="1" parent="mWVu_xRzKWNHAGZDIE05-55">
          <mxGeometry y="60" width="250" height="26" as="geometry" />
        </mxCell>
        <mxCell id="mWVu_xRzKWNHAGZDIE05-59" value="+ EjectQuarter()" style="text;strokeColor=none;fillColor=none;align=left;verticalAlign=top;spacingLeft=4;spacingRight=4;overflow=hidden;rotatable=0;points=[[0,0.5],[1,0.5]];portConstraint=eastwest;whiteSpace=wrap;html=1;" vertex="1" parent="mWVu_xRzKWNHAGZDIE05-55">
          <mxGeometry y="86" width="250" height="26" as="geometry" />
        </mxCell>
        <mxCell id="mWVu_xRzKWNHAGZDIE05-60" value="+ TurnCrank()" style="text;strokeColor=none;fillColor=none;align=left;verticalAlign=top;spacingLeft=4;spacingRight=4;overflow=hidden;rotatable=0;points=[[0,0.5],[1,0.5]];portConstraint=eastwest;whiteSpace=wrap;html=1;" vertex="1" parent="mWVu_xRzKWNHAGZDIE05-55">
          <mxGeometry y="112" width="250" height="26" as="geometry" />
        </mxCell>
        <mxCell id="mWVu_xRzKWNHAGZDIE05-61" value="+ Dispense()" style="text;strokeColor=none;fillColor=none;align=left;verticalAlign=top;spacingLeft=4;spacingRight=4;overflow=hidden;rotatable=0;points=[[0,0.5],[1,0.5]];portConstraint=eastwest;whiteSpace=wrap;html=1;" vertex="1" parent="mWVu_xRzKWNHAGZDIE05-55">
          <mxGeometry y="138" width="250" height="26" as="geometry" />
        </mxCell>
        <mxCell id="mWVu_xRzKWNHAGZDIE05-62" value="+ ToString(): string" style="text;strokeColor=none;fillColor=none;align=left;verticalAlign=top;spacingLeft=4;spacingRight=4;overflow=hidden;rotatable=0;points=[[0,0.5],[1,0.5]];portConstraint=eastwest;whiteSpace=wrap;html=1;" vertex="1" parent="mWVu_xRzKWNHAGZDIE05-55">
          <mxGeometry y="164" width="250" height="26" as="geometry" />
        </mxCell>
        <mxCell id="mWVu_xRzKWNHAGZDIE05-63" value="CSoldState" style="swimlane;fontStyle=1;align=center;verticalAlign=top;childLayout=stackLayout;horizontal=1;startSize=26;horizontalStack=0;resizeParent=1;resizeParentMax=0;resizeLast=0;collapsible=1;marginBottom=0;whiteSpace=wrap;html=1;" vertex="1" parent="1">
          <mxGeometry x="2490" y="585" width="250" height="190" as="geometry" />
        </mxCell>
        <mxCell id="mWVu_xRzKWNHAGZDIE05-64" value="- m_gumballMachine: IMultiGumballMachine" style="text;strokeColor=none;fillColor=none;align=left;verticalAlign=top;spacingLeft=4;spacingRight=4;overflow=hidden;rotatable=0;points=[[0,0.5],[1,0.5]];portConstraint=eastwest;whiteSpace=wrap;html=1;" vertex="1" parent="mWVu_xRzKWNHAGZDIE05-63">
          <mxGeometry y="26" width="250" height="26" as="geometry" />
        </mxCell>
        <mxCell id="mWVu_xRzKWNHAGZDIE05-65" value="" style="line;strokeWidth=1;fillColor=none;align=left;verticalAlign=middle;spacingTop=-1;spacingLeft=3;spacingRight=3;rotatable=0;labelPosition=right;points=[];portConstraint=eastwest;strokeColor=inherit;" vertex="1" parent="mWVu_xRzKWNHAGZDIE05-63">
          <mxGeometry y="52" width="250" height="8" as="geometry" />
        </mxCell>
        <mxCell id="mWVu_xRzKWNHAGZDIE05-66" value="+ InsertQuarter()" style="text;strokeColor=none;fillColor=none;align=left;verticalAlign=top;spacingLeft=4;spacingRight=4;overflow=hidden;rotatable=0;points=[[0,0.5],[1,0.5]];portConstraint=eastwest;whiteSpace=wrap;html=1;" vertex="1" parent="mWVu_xRzKWNHAGZDIE05-63">
          <mxGeometry y="60" width="250" height="26" as="geometry" />
        </mxCell>
        <mxCell id="mWVu_xRzKWNHAGZDIE05-67" value="+ EjectQuarter()" style="text;strokeColor=none;fillColor=none;align=left;verticalAlign=top;spacingLeft=4;spacingRight=4;overflow=hidden;rotatable=0;points=[[0,0.5],[1,0.5]];portConstraint=eastwest;whiteSpace=wrap;html=1;" vertex="1" parent="mWVu_xRzKWNHAGZDIE05-63">
          <mxGeometry y="86" width="250" height="26" as="geometry" />
        </mxCell>
        <mxCell id="mWVu_xRzKWNHAGZDIE05-68" value="+ TurnCrank()" style="text;strokeColor=none;fillColor=none;align=left;verticalAlign=top;spacingLeft=4;spacingRight=4;overflow=hidden;rotatable=0;points=[[0,0.5],[1,0.5]];portConstraint=eastwest;whiteSpace=wrap;html=1;" vertex="1" parent="mWVu_xRzKWNHAGZDIE05-63">
          <mxGeometry y="112" width="250" height="26" as="geometry" />
        </mxCell>
        <mxCell id="mWVu_xRzKWNHAGZDIE05-69" value="+ Dispense()" style="text;strokeColor=none;fillColor=none;align=left;verticalAlign=top;spacingLeft=4;spacingRight=4;overflow=hidden;rotatable=0;points=[[0,0.5],[1,0.5]];portConstraint=eastwest;whiteSpace=wrap;html=1;" vertex="1" parent="mWVu_xRzKWNHAGZDIE05-63">
          <mxGeometry y="138" width="250" height="26" as="geometry" />
        </mxCell>
        <mxCell id="mWVu_xRzKWNHAGZDIE05-70" value="+ ToString(): string" style="text;strokeColor=none;fillColor=none;align=left;verticalAlign=top;spacingLeft=4;spacingRight=4;overflow=hidden;rotatable=0;points=[[0,0.5],[1,0.5]];portConstraint=eastwest;whiteSpace=wrap;html=1;" vertex="1" parent="mWVu_xRzKWNHAGZDIE05-63">
          <mxGeometry y="164" width="250" height="26" as="geometry" />
        </mxCell>
        <mxCell id="mWVu_xRzKWNHAGZDIE05-75" value="IMultiGumballMachine" style="swimlane;fontStyle=1;align=center;verticalAlign=top;childLayout=stackLayout;horizontal=1;startSize=26;horizontalStack=0;resizeParent=1;resizeParentMax=0;resizeLast=0;collapsible=1;marginBottom=0;whiteSpace=wrap;html=1;" vertex="1" parent="1">
          <mxGeometry x="2170" y="1120" width="340" height="260" as="geometry" />
        </mxCell>
        <mxCell id="mWVu_xRzKWNHAGZDIE05-89" value="+ GetBallCount(): unsigned" style="text;strokeColor=none;fillColor=none;align=left;verticalAlign=top;spacingLeft=4;spacingRight=4;overflow=hidden;rotatable=0;points=[[0,0.5],[1,0.5]];portConstraint=eastwest;whiteSpace=wrap;html=1;" vertex="1" parent="mWVu_xRzKWNHAGZDIE05-75">
          <mxGeometry y="26" width="340" height="26" as="geometry" />
        </mxCell>
        <mxCell id="mWVu_xRzKWNHAGZDIE05-90" value="+ GetQuarterCount(): unsigned" style="text;strokeColor=none;fillColor=none;align=left;verticalAlign=top;spacingLeft=4;spacingRight=4;overflow=hidden;rotatable=0;points=[[0,0.5],[1,0.5]];portConstraint=eastwest;whiteSpace=wrap;html=1;" vertex="1" parent="mWVu_xRzKWNHAGZDIE05-75">
          <mxGeometry y="52" width="340" height="26" as="geometry" />
        </mxCell>
        <mxCell id="mWVu_xRzKWNHAGZDIE05-91" value="+ SetQuarterCount(unsigned count)" style="text;strokeColor=none;fillColor=none;align=left;verticalAlign=top;spacingLeft=4;spacingRight=4;overflow=hidden;rotatable=0;points=[[0,0.5],[1,0.5]];portConstraint=eastwest;whiteSpace=wrap;html=1;" vertex="1" parent="mWVu_xRzKWNHAGZDIE05-75">
          <mxGeometry y="78" width="340" height="26" as="geometry" />
        </mxCell>
        <mxCell id="mWVu_xRzKWNHAGZDIE05-92" value="+ ReleaseBall()" style="text;strokeColor=none;fillColor=none;align=left;verticalAlign=top;spacingLeft=4;spacingRight=4;overflow=hidden;rotatable=0;points=[[0,0.5],[1,0.5]];portConstraint=eastwest;whiteSpace=wrap;html=1;" vertex="1" parent="mWVu_xRzKWNHAGZDIE05-75">
          <mxGeometry y="104" width="340" height="26" as="geometry" />
        </mxCell>
        <mxCell id="mWVu_xRzKWNHAGZDIE05-93" value="+ SetSoldOutState()" style="text;strokeColor=none;fillColor=none;align=left;verticalAlign=top;spacingLeft=4;spacingRight=4;overflow=hidden;rotatable=0;points=[[0,0.5],[1,0.5]];portConstraint=eastwest;whiteSpace=wrap;html=1;" vertex="1" parent="mWVu_xRzKWNHAGZDIE05-75">
          <mxGeometry y="130" width="340" height="26" as="geometry" />
        </mxCell>
        <mxCell id="mWVu_xRzKWNHAGZDIE05-94" value="+ SetNoQuarterState()" style="text;strokeColor=none;fillColor=none;align=left;verticalAlign=top;spacingLeft=4;spacingRight=4;overflow=hidden;rotatable=0;points=[[0,0.5],[1,0.5]];portConstraint=eastwest;whiteSpace=wrap;html=1;" vertex="1" parent="mWVu_xRzKWNHAGZDIE05-75">
          <mxGeometry y="156" width="340" height="26" as="geometry" />
        </mxCell>
        <mxCell id="mWVu_xRzKWNHAGZDIE05-95" value="+ SetSoldState()" style="text;strokeColor=none;fillColor=none;align=left;verticalAlign=top;spacingLeft=4;spacingRight=4;overflow=hidden;rotatable=0;points=[[0,0.5],[1,0.5]];portConstraint=eastwest;whiteSpace=wrap;html=1;" vertex="1" parent="mWVu_xRzKWNHAGZDIE05-75">
          <mxGeometry y="182" width="340" height="26" as="geometry" />
        </mxCell>
        <mxCell id="mWVu_xRzKWNHAGZDIE05-96" value="+ SetHasQuarterState()" style="text;strokeColor=none;fillColor=none;align=left;verticalAlign=top;spacingLeft=4;spacingRight=4;overflow=hidden;rotatable=0;points=[[0,0.5],[1,0.5]];portConstraint=eastwest;whiteSpace=wrap;html=1;" vertex="1" parent="mWVu_xRzKWNHAGZDIE05-75">
          <mxGeometry y="208" width="340" height="26" as="geometry" />
        </mxCell>
        <mxCell id="mWVu_xRzKWNHAGZDIE05-97" value="+ SetHasMaxQuartersState()" style="text;strokeColor=none;fillColor=none;align=left;verticalAlign=top;spacingLeft=4;spacingRight=4;overflow=hidden;rotatable=0;points=[[0,0.5],[1,0.5]];portConstraint=eastwest;whiteSpace=wrap;html=1;" vertex="1" parent="mWVu_xRzKWNHAGZDIE05-75">
          <mxGeometry y="234" width="340" height="26" as="geometry" />
        </mxCell>
        <mxCell id="mWVu_xRzKWNHAGZDIE05-98" value="IState" style="swimlane;fontStyle=1;align=center;verticalAlign=top;childLayout=stackLayout;horizontal=1;startSize=26;horizontalStack=0;resizeParent=1;resizeParentMax=0;resizeLast=0;collapsible=1;marginBottom=0;whiteSpace=wrap;html=1;" vertex="1" parent="1">
          <mxGeometry x="1710" y="190" width="160" height="156" as="geometry" />
        </mxCell>
        <mxCell id="mWVu_xRzKWNHAGZDIE05-101" value="+ InsertQuarter()" style="text;strokeColor=none;fillColor=none;align=left;verticalAlign=top;spacingLeft=4;spacingRight=4;overflow=hidden;rotatable=0;points=[[0,0.5],[1,0.5]];portConstraint=eastwest;whiteSpace=wrap;html=1;" vertex="1" parent="mWVu_xRzKWNHAGZDIE05-98">
          <mxGeometry y="26" width="160" height="26" as="geometry" />
        </mxCell>
        <mxCell id="mWVu_xRzKWNHAGZDIE05-103" value="+ EjectQuarter()" style="text;strokeColor=none;fillColor=none;align=left;verticalAlign=top;spacingLeft=4;spacingRight=4;overflow=hidden;rotatable=0;points=[[0,0.5],[1,0.5]];portConstraint=eastwest;whiteSpace=wrap;html=1;" vertex="1" parent="mWVu_xRzKWNHAGZDIE05-98">
          <mxGeometry y="52" width="160" height="26" as="geometry" />
        </mxCell>
        <mxCell id="mWVu_xRzKWNHAGZDIE05-104" value="+ TurnCrank()" style="text;strokeColor=none;fillColor=none;align=left;verticalAlign=top;spacingLeft=4;spacingRight=4;overflow=hidden;rotatable=0;points=[[0,0.5],[1,0.5]];portConstraint=eastwest;whiteSpace=wrap;html=1;" vertex="1" parent="mWVu_xRzKWNHAGZDIE05-98">
          <mxGeometry y="78" width="160" height="26" as="geometry" />
        </mxCell>
        <mxCell id="mWVu_xRzKWNHAGZDIE05-105" value="+ Dispense()" style="text;strokeColor=none;fillColor=none;align=left;verticalAlign=top;spacingLeft=4;spacingRight=4;overflow=hidden;rotatable=0;points=[[0,0.5],[1,0.5]];portConstraint=eastwest;whiteSpace=wrap;html=1;" vertex="1" parent="mWVu_xRzKWNHAGZDIE05-98">
          <mxGeometry y="104" width="160" height="26" as="geometry" />
        </mxCell>
        <mxCell id="mWVu_xRzKWNHAGZDIE05-102" value="+ ToString(): string" style="text;strokeColor=none;fillColor=none;align=left;verticalAlign=top;spacingLeft=4;spacingRight=4;overflow=hidden;rotatable=0;points=[[0,0.5],[1,0.5]];portConstraint=eastwest;whiteSpace=wrap;html=1;" vertex="1" parent="mWVu_xRzKWNHAGZDIE05-98">
          <mxGeometry y="130" width="160" height="26" as="geometry" />
        </mxCell>
        <mxCell id="mWVu_xRzKWNHAGZDIE05-106" value="" style="endArrow=block;dashed=1;endFill=0;endSize=12;html=1;rounded=0;" edge="1" parent="1" source="mWVu_xRzKWNHAGZDIE05-24" target="mWVu_xRzKWNHAGZDIE05-75">
          <mxGeometry width="160" relative="1" as="geometry">
            <mxPoint x="1434" y="1230" as="sourcePoint" />
            <mxPoint x="1594" y="1230" as="targetPoint" />
          </mxGeometry>
        </mxCell>
        <mxCell id="mWVu_xRzKWNHAGZDIE05-108" value="" style="endArrow=block;dashed=1;endFill=0;endSize=12;html=1;rounded=0;" edge="1" parent="1" source="mWVu_xRzKWNHAGZDIE05-1" target="mWVu_xRzKWNHAGZDIE05-98">
          <mxGeometry width="160" relative="1" as="geometry">
            <mxPoint x="1110" y="380" as="sourcePoint" />
            <mxPoint x="1270" y="380" as="targetPoint" />
          </mxGeometry>
        </mxCell>
        <mxCell id="mWVu_xRzKWNHAGZDIE05-109" value="" style="endArrow=block;dashed=1;endFill=0;endSize=12;html=1;rounded=0;" edge="1" parent="1" source="mWVu_xRzKWNHAGZDIE05-16" target="mWVu_xRzKWNHAGZDIE05-98">
          <mxGeometry width="160" relative="1" as="geometry">
            <mxPoint x="1110" y="380" as="sourcePoint" />
            <mxPoint x="1270" y="380" as="targetPoint" />
          </mxGeometry>
        </mxCell>
        <mxCell id="mWVu_xRzKWNHAGZDIE05-110" value="" style="endArrow=block;dashed=1;endFill=0;endSize=12;html=1;rounded=0;" edge="1" parent="1" source="mWVu_xRzKWNHAGZDIE05-47" target="mWVu_xRzKWNHAGZDIE05-98">
          <mxGeometry width="160" relative="1" as="geometry">
            <mxPoint x="1110" y="380" as="sourcePoint" />
            <mxPoint x="1270" y="380" as="targetPoint" />
          </mxGeometry>
        </mxCell>
        <mxCell id="mWVu_xRzKWNHAGZDIE05-111" value="" style="endArrow=block;dashed=1;endFill=0;endSize=12;html=1;rounded=0;" edge="1" parent="1" source="mWVu_xRzKWNHAGZDIE05-55" target="mWVu_xRzKWNHAGZDIE05-98">
          <mxGeometry width="160" relative="1" as="geometry">
            <mxPoint x="1740" y="380" as="sourcePoint" />
            <mxPoint x="1900" y="380" as="targetPoint" />
          </mxGeometry>
        </mxCell>
        <mxCell id="mWVu_xRzKWNHAGZDIE05-112" value="" style="endArrow=block;dashed=1;endFill=0;endSize=12;html=1;rounded=0;" edge="1" parent="1" source="mWVu_xRzKWNHAGZDIE05-63" target="mWVu_xRzKWNHAGZDIE05-98">
          <mxGeometry width="160" relative="1" as="geometry">
            <mxPoint x="1740" y="380" as="sourcePoint" />
            <mxPoint x="1900" y="380" as="targetPoint" />
          </mxGeometry>
        </mxCell>
        <mxCell id="mWVu_xRzKWNHAGZDIE05-113" value="" style="endArrow=diamondThin;endFill=1;endSize=24;html=1;rounded=0;" edge="1" parent="1" source="mWVu_xRzKWNHAGZDIE05-1" target="mWVu_xRzKWNHAGZDIE05-24">
          <mxGeometry width="160" relative="1" as="geometry">
            <mxPoint x="1000" y="920" as="sourcePoint" />
            <mxPoint x="1160" y="920" as="targetPoint" />
          </mxGeometry>
        </mxCell>
        <mxCell id="mWVu_xRzKWNHAGZDIE05-115" value="" style="endArrow=diamondThin;endFill=1;endSize=24;html=1;rounded=0;" edge="1" parent="1" source="mWVu_xRzKWNHAGZDIE05-16" target="mWVu_xRzKWNHAGZDIE05-24">
          <mxGeometry width="160" relative="1" as="geometry">
            <mxPoint x="1600" y="940" as="sourcePoint" />
            <mxPoint x="1760" y="940" as="targetPoint" />
          </mxGeometry>
        </mxCell>
        <mxCell id="mWVu_xRzKWNHAGZDIE05-116" value="" style="endArrow=diamondThin;endFill=0;endSize=24;html=1;rounded=0;" edge="1" parent="1" source="mWVu_xRzKWNHAGZDIE05-75" target="mWVu_xRzKWNHAGZDIE05-47">
          <mxGeometry width="160" relative="1" as="geometry">
            <mxPoint x="1650" y="970" as="sourcePoint" />
            <mxPoint x="1810" y="970" as="targetPoint" />
          </mxGeometry>
        </mxCell>
        <mxCell id="mWVu_xRzKWNHAGZDIE05-117" value="" style="endArrow=diamondThin;endFill=1;endSize=24;html=1;rounded=0;" edge="1" parent="1" source="mWVu_xRzKWNHAGZDIE05-47" target="mWVu_xRzKWNHAGZDIE05-24">
          <mxGeometry width="160" relative="1" as="geometry">
            <mxPoint x="1610" y="890" as="sourcePoint" />
            <mxPoint x="1770" y="890" as="targetPoint" />
          </mxGeometry>
        </mxCell>
        <mxCell id="mWVu_xRzKWNHAGZDIE05-118" value="" style="endArrow=diamondThin;endFill=1;endSize=24;html=1;rounded=0;" edge="1" parent="1" source="mWVu_xRzKWNHAGZDIE05-55" target="mWVu_xRzKWNHAGZDIE05-24">
          <mxGeometry width="160" relative="1" as="geometry">
            <mxPoint x="1590" y="1110" as="sourcePoint" />
            <mxPoint x="1750" y="1110" as="targetPoint" />
          </mxGeometry>
        </mxCell>
        <mxCell id="mWVu_xRzKWNHAGZDIE05-119" value="" style="endArrow=diamondThin;endFill=1;endSize=24;html=1;rounded=0;" edge="1" parent="1" source="mWVu_xRzKWNHAGZDIE05-63" target="mWVu_xRzKWNHAGZDIE05-24">
          <mxGeometry width="160" relative="1" as="geometry">
            <mxPoint x="1970" y="950" as="sourcePoint" />
            <mxPoint x="2130" y="950" as="targetPoint" />
          </mxGeometry>
        </mxCell>
        <mxCell id="mWVu_xRzKWNHAGZDIE05-120" value="" style="endArrow=diamondThin;endFill=0;endSize=24;html=1;rounded=0;" edge="1" parent="1" source="mWVu_xRzKWNHAGZDIE05-75" target="mWVu_xRzKWNHAGZDIE05-55">
          <mxGeometry width="160" relative="1" as="geometry">
            <mxPoint x="1890" y="1120" as="sourcePoint" />
            <mxPoint x="2050" y="1120" as="targetPoint" />
          </mxGeometry>
        </mxCell>
        <mxCell id="mWVu_xRzKWNHAGZDIE05-121" value="" style="endArrow=diamondThin;endFill=0;endSize=24;html=1;rounded=0;" edge="1" parent="1" source="mWVu_xRzKWNHAGZDIE05-75" target="mWVu_xRzKWNHAGZDIE05-63">
          <mxGeometry width="160" relative="1" as="geometry">
            <mxPoint x="2490" y="990" as="sourcePoint" />
            <mxPoint x="2510" y="990" as="targetPoint" />
          </mxGeometry>
        </mxCell>
        <mxCell id="mWVu_xRzKWNHAGZDIE05-122" value="" style="endArrow=diamondThin;endFill=0;endSize=24;html=1;rounded=0;" edge="1" parent="1" source="mWVu_xRzKWNHAGZDIE05-75" target="mWVu_xRzKWNHAGZDIE05-16">
          <mxGeometry width="160" relative="1" as="geometry">
            <mxPoint x="1760" y="1130" as="sourcePoint" />
            <mxPoint x="1920" y="1130" as="targetPoint" />
          </mxGeometry>
        </mxCell>
        <mxCell id="mWVu_xRzKWNHAGZDIE05-123" value="" style="endArrow=diamondThin;endFill=0;endSize=24;html=1;rounded=0;" edge="1" parent="1" source="mWVu_xRzKWNHAGZDIE05-75" target="mWVu_xRzKWNHAGZDIE05-1">
          <mxGeometry width="160" relative="1" as="geometry">
            <mxPoint x="1750" y="1100" as="sourcePoint" />
            <mxPoint x="1910" y="1100" as="targetPoint" />
          </mxGeometry>
        </mxCell>
      </root>
    </mxGraphModel>
  </diagram>
</mxfile>
